<svg xmlns="http://www.w3.org/2000/svg" viewBox="0 0 154.8 139.9"><defs><style>.cls-1{fill:#fff;}.cls-2{fill:#636466;}.cls-3{fill:#8b0029;}.cls-4{fill:#f37021;}</style></defs><title>loga-mea</title><g id="Layer_2" data-name="Layer 2"><g id="Layer_1-2" data-name="Layer 1"><path class="cls-1" d="M2.54,137a2.68,2.68,0,0,1-.76-.1,1.87,1.87,0,0,1-.63-.32A1.48,1.48,0,0,1,.72,136a1.68,1.68,0,0,1-.16-.77,1.5,1.5,0,0,1,.49-1.16,2.1,2.1,0,0,1,1.49-.47H4v-.36a1,1,0,0,0-.29-.79,1.42,1.42,0,0,0-1-.26,1.84,1.84,0,0,0-.76.14,2,2,0,0,0-.53.37L.78,132a2.42,2.42,0,0,1,.92-.62,3.27,3.27,0,0,1,1.13-.18A3.72,3.72,0,0,1,4,131.4l1-.94.78.74-.89.84a1.87,1.87,0,0,1,.31,1.11v3.73H4v-2.43H2.69c-.68,0-1,.25-1,.77a.7.7,0,0,0,.25.58,1.25,1.25,0,0,0,.8.21V137Z"/><path class="cls-1" d="M10.53,135.21a1.44,1.44,0,0,1-.14.65,1.56,1.56,0,0,1-.4.56,1.9,1.9,0,0,1-.69.38,2.86,2.86,0,0,1-1,.15,3.19,3.19,0,0,1-1.28-.23,3.48,3.48,0,0,1-1-.72l.69-.75a2.93,2.93,0,0,0,.7.54,1.84,1.84,0,0,0,.87.18,1.33,1.33,0,0,0,.86-.22.71.71,0,0,0,.24-.54.52.52,0,0,0-.25-.48,1.65,1.65,0,0,0-.56-.23l-.45-.1a3.91,3.91,0,0,1-1.32-.51,1.15,1.15,0,0,1-.48-1,1.57,1.57,0,0,1,.5-1.16,2,2,0,0,1,1.47-.47,2.85,2.85,0,0,1,1.08.19,4,4,0,0,1,1,.58l-.75.71a2.47,2.47,0,0,0-.62-.38,1.68,1.68,0,0,0-.68-.13.94.94,0,0,0-.67.19.6.6,0,0,0-.2.47.37.37,0,0,0,.23.34,4.1,4.1,0,0,0,.64.23l.51.12a6.37,6.37,0,0,1,.66.21,1.78,1.78,0,0,1,.54.31,1.28,1.28,0,0,1,.37.46A1.54,1.54,0,0,1,10.53,135.21Z"/><path class="cls-1" d="M10.73,129.26v1H7.31v-.79l.46-.11A.24.24,0,0,0,8,129c0-.16-.17-.22-.52-.2v-.94a2.14,2.14,0,0,1,1.12.25.85.85,0,0,1,.41.79v.16a1.24,1.24,0,0,1,0,.16Z"/><path class="cls-1" d="M11,132.27a2.21,2.21,0,0,1,.79-.76,2.18,2.18,0,0,1,1.09-.27,2,2,0,0,1,1.43.48,1.9,1.9,0,0,1,.48,1.4v3.76H13.66v-3.73a1.12,1.12,0,0,0-.18-.68.71.71,0,0,0-.62-.25,1.17,1.17,0,0,0-1,.55Z"/><path class="cls-1" d="M16.25,135.11a1.3,1.3,0,0,0,.37.64.79.79,0,0,0,.58.23.8.8,0,0,0,.66-.25,1.06,1.06,0,0,0,.2-.68v-2.82h-.78v-.94h1.9v3.79a1.84,1.84,0,0,1-.51,1.39,2.07,2.07,0,0,1-1.47.48,1.9,1.9,0,0,1-1.23-.37,2.29,2.29,0,0,1-.72-1Z"/><path class="cls-1" d="M21.71,136.88H20.6v-3.5a2.19,2.19,0,0,1,.18-.9,1.8,1.8,0,0,1,.47-.69,1.7,1.7,0,0,1,.85-.44,3.94,3.94,0,0,1,.94-.11,4,4,0,0,1,.94.11,1.71,1.71,0,0,1,.84.44,1.94,1.94,0,0,1,.48.69,2.37,2.37,0,0,1,.17.9v3.5h-1.1v-3.4a1.15,1.15,0,0,0-.36-1,1.44,1.44,0,0,0-1-.3,1.43,1.43,0,0,0-1,.28,1.19,1.19,0,0,0-.37.91v.21a1.89,1.89,0,0,1,.46-.05h.92v.92h-.81a.57.57,0,0,0-.45.14.68.68,0,0,0-.12.44Z"/><path class="cls-1" d="M24.41,138.91c0-.11,0-.18,0-.2s-.06,0-.13,0h-.41v-1h.48a2.76,2.76,0,0,1,.54,0,.68.68,0,0,1,.36.18.77.77,0,0,1,.2.37,2.53,2.53,0,0,1,.06.62v1H24.41Z"/><path class="cls-1" d="M27,133.57l-.53-.74a3,3,0,0,1,2.69-1.59,2.75,2.75,0,0,1,1.89.56,2.13,2.13,0,0,1,.62,1.64v1.24a1.56,1.56,0,0,0,.25.95.9.9,0,0,0,.76.34,1,1,0,0,0,.76-.35,1.3,1.3,0,0,0,.33-.94v-3.39h1.11v5.59H33.8v-.5a2.25,2.25,0,0,1-.55.41,1.3,1.3,0,0,1-.63.15,2,2,0,0,1-1.47-.54,2.09,2.09,0,0,1-.56-1.59v-1.29a1.23,1.23,0,0,0-.37-1,1.59,1.59,0,0,0-1-.29,2,2,0,0,0-.72.13,1.71,1.71,0,0,0-.68.46l.18.28a1.44,1.44,0,0,1,.18.25v2.13a.68.68,0,0,0,.06.31.29.29,0,0,0,.27.11H29v1h-.67a1.23,1.23,0,0,1-1-.37,1.63,1.63,0,0,1-.31-1Z"/><path class="cls-1" d="M37.44,136.88H36.33v-3.5a2.37,2.37,0,0,1,.17-.9,1.94,1.94,0,0,1,.48-.69,1.7,1.7,0,0,1,.85-.44,3.94,3.94,0,0,1,.94-.11,4.06,4.06,0,0,1,.94.11,1.71,1.71,0,0,1,.84.44,1.94,1.94,0,0,1,.48.69,2.37,2.37,0,0,1,.17.9v3.5H40.09v-3.4a1.15,1.15,0,0,0-.35-1,1.44,1.44,0,0,0-1-.3,1.48,1.48,0,0,0-1,.28,1.22,1.22,0,0,0-.36.91v.21a1.87,1.87,0,0,1,.45-.05h.93v.92H38a.56.56,0,0,0-.45.14.68.68,0,0,0-.12.44Z"/><path class="cls-1" d="M40.09,128.17H41.2v2H40.09Z"/><path class="cls-1" d="M42,132.27a2.21,2.21,0,0,1,.79-.76,2.18,2.18,0,0,1,1.09-.27,2,2,0,0,1,1.43.48,1.9,1.9,0,0,1,.48,1.4v3.76H44.66v-3.73a1.12,1.12,0,0,0-.18-.68.71.71,0,0,0-.62-.25,1.17,1.17,0,0,0-1,.55Z"/><path class="cls-1" d="M48.31,131.29v.64a1.76,1.76,0,0,1,.69-.54,2,2,0,0,1,1.6,0,1.61,1.61,0,0,1,.62.43,2.13,2.13,0,0,1,.4.67,2.45,2.45,0,0,1,.14.83v3.57H50.62v-3.4a1.23,1.23,0,0,0-.33-1,1.19,1.19,0,0,0-.8-.29.94.94,0,0,0-.42.11,1.13,1.13,0,0,0-.37.29,1.34,1.34,0,0,0-.26.43,1.43,1.43,0,0,0-.1.56v3.26H47.2v-5.59Z"/><path class="cls-1" d="M47.19,129.38h3.49v-.84h1.08v1.71H47.19Z"/><path class="cls-1" d="M50.69,125.79h1.07v2H50.69Z"/><path class="cls-1" d="M53.19,131.29h1.13v4.17a.69.69,0,0,0,0,.31c0,.08.12.11.26.11h.56v1h-.67a1.23,1.23,0,0,1-1-.37,1.63,1.63,0,0,1-.31-1Zm2.6,0h1.13v4.17a.69.69,0,0,0,0,.31c0,.08.13.11.26.11h.56v1h-.67a1.23,1.23,0,0,1-1-.37,1.63,1.63,0,0,1-.31-1Z"/><path class="cls-1" d="M60,132.38a1,1,0,0,0-.3.43,1.9,1.9,0,0,0-.1.61v1.87a.7.7,0,0,0,.12.44.52.52,0,0,0,.43.15h.5v1H60.1a1.54,1.54,0,0,1-1.19-.43,1.64,1.64,0,0,1-.39-1.15v-2a2.19,2.19,0,0,1,.18-.9,2,2,0,0,1,.48-.69,2,2,0,0,1,.47-.29,4.84,4.84,0,0,1,.61-.21l.79.81.78-.81a3.63,3.63,0,0,1,.61.2,2.19,2.19,0,0,1,.48.3,2,2,0,0,1,.66,1.59v3.57h-1.1v-3.46a1.74,1.74,0,0,0-.11-.61,1.13,1.13,0,0,0-.29-.43l-.61.61a.52.52,0,0,1-.41.16.54.54,0,0,1-.4-.16Z"/><path class="cls-1" d="M66.21,133.34v3.54H65.1v-3.29l-.54-.75a3.59,3.59,0,0,1,1.15-1.2,2.86,2.86,0,0,1,1.55-.4,2.69,2.69,0,0,1,1.88.57,2.1,2.1,0,0,1,.63,1.64v3.43H68.66v-3.35a1.2,1.2,0,0,0-.37-1,1.59,1.59,0,0,0-1-.3,2,2,0,0,0-1.38.58Z"/><path class="cls-1" d="M72.71,132.38a.94.94,0,0,0-.29.43,1.66,1.66,0,0,0-.11.61v1.87a.7.7,0,0,0,.12.44.52.52,0,0,0,.43.15h.5v1h-.59a1.5,1.5,0,0,1-1.18-.43,1.6,1.6,0,0,1-.4-1.15v-2a2.19,2.19,0,0,1,.18-.9,1.93,1.93,0,0,1,.49-.69,1.64,1.64,0,0,1,.47-.29,4.2,4.2,0,0,1,.6-.21l.79.81.78-.81a3.63,3.63,0,0,1,.61.2,2.19,2.19,0,0,1,.48.3,2,2,0,0,1,.66,1.59v3.57h-1.1v-3.46a1.74,1.74,0,0,0-.11-.61,1,1,0,0,0-.29-.43l-.61.61a.52.52,0,0,1-.41.16.5.5,0,0,1-.39-.16Z"/><path class="cls-1" d="M75.15,128.17h1.1v2h-1.1Z"/><path class="cls-1" d="M77,132.27a2.29,2.29,0,0,1,.79-.76,2.18,2.18,0,0,1,1.09-.27,1.93,1.93,0,0,1,1.43.48,1.9,1.9,0,0,1,.48,1.4v3.76H79.71v-3.73a1.12,1.12,0,0,0-.18-.68.7.7,0,0,0-.62-.25,1.17,1.17,0,0,0-1,.55Z"/><path class="cls-1" d="M82.3,135.11a1.37,1.37,0,0,0,.37.64.81.81,0,0,0,.58.23.78.78,0,0,0,.66-.25,1.06,1.06,0,0,0,.2-.68v-2.82h-.77v-.94h1.89v3.79a1.84,1.84,0,0,1-.51,1.39,2.07,2.07,0,0,1-1.47.48,1.94,1.94,0,0,1-1.23-.37,2.29,2.29,0,0,1-.72-1Z"/><path class="cls-1" d="M14.72,22.5a6.13,6.13,0,0,1-2.16,4.08A6.5,6.5,0,0,1,8.39,28a6.37,6.37,0,0,1-2.59-.51,6.61,6.61,0,0,1-2-1.4,4.52,4.52,0,0,1-1-1.38,6.78,6.78,0,0,1-.5-1.58,11,11,0,0,1-.17-1.79c0-.64,0-1.33,0-2.09s0-1.41,0-2.05a11.58,11.58,0,0,1,.17-1.81,6.71,6.71,0,0,1,.5-1.59,4.52,4.52,0,0,1,1-1.38,6.12,6.12,0,0,1,4.64-2,6.33,6.33,0,0,1,4.17,1.44,6.45,6.45,0,0,1,2.19,4.2H11.16a3.73,3.73,0,0,0-.9-1.73,2.5,2.5,0,0,0-1.87-.7,2.45,2.45,0,0,0-2,.89,3.09,3.09,0,0,0-.4.57,2.56,2.56,0,0,0-.23.8,9.81,9.81,0,0,0-.12,1.3c0,.52,0,1.19,0,2s0,1.46,0,2a10.16,10.16,0,0,0,.12,1.3,3,3,0,0,0,.23.83,2.16,2.16,0,0,0,.4.57,2.69,2.69,0,0,0,2,.85,2.46,2.46,0,0,0,1.87-.7,3.69,3.69,0,0,0,.9-1.73h3.46Z"/><path class="cls-1" d="M27.06,27.79V20.68H21.42v7.11H17.86V10.64h3.56V17.5h5.64V10.64h3.59V27.79Z"/><path class="cls-1" d="M44.42,27.79l-1-3H37.55c-.18.5-.36,1-.53,1.5s-.35,1-.53,1.47H32.76l6.29-17.15h2.81l6.35,17.15ZM40.56,16.17l-2,5.61h3.87Z"/><path class="cls-1" d="M61.24,27.79,53.92,17.16V27.79H50.37V10.64h2.87l7.28,10.52V10.64h3.62V27.79Z"/><path class="cls-1" d="M80.2,23.83A5.35,5.35,0,0,1,78.94,26a6.19,6.19,0,0,1-2.27,1.55,7.25,7.25,0,0,1-2.62.46,6.45,6.45,0,0,1-2.6-.51,6.85,6.85,0,0,1-2-1.4,4.65,4.65,0,0,1-1-1.38,6.78,6.78,0,0,1-.5-1.58,11,11,0,0,1-.17-1.79c0-.64,0-1.33,0-2.09s0-1.41,0-2.05a11.58,11.58,0,0,1,.17-1.81,6.71,6.71,0,0,1,.5-1.59,4.65,4.65,0,0,1,1-1.38,6,6,0,0,1,2-1.45,6.5,6.5,0,0,1,2.61-.5,7,7,0,0,1,2.65.46,5.83,5.83,0,0,1,2,1.27A6.16,6.16,0,0,1,79.93,14a7.64,7.64,0,0,1,.65,2.15H77a3.4,3.4,0,0,0-1-1.85,2.82,2.82,0,0,0-1.93-.65,2.57,2.57,0,0,0-1.18.26,2.8,2.8,0,0,0-.83.63,3.16,3.16,0,0,0-.4.58,3.23,3.23,0,0,0-.24.82c-.05.34-.09.78-.12,1.3s0,1.19,0,2,0,1.46,0,2,.07.95.12,1.3a3.32,3.32,0,0,0,.24.83,2.16,2.16,0,0,0,.4.57,2.59,2.59,0,0,0,.83.61,2.7,2.7,0,0,0,1.18.24,3,3,0,0,0,3-3.11v-.51H74v-3h6.63v2.6A10.29,10.29,0,0,1,80.2,23.83Z"/><path class="cls-1" d="M84,27.79V10.64H95.48v3.17h-8V17.5h6.8v3.22h-6.8v3.86h8v3.21Z"/><path class="cls-1" d="M13.94,46.48a4.89,4.89,0,0,1-.49,2.24,4.72,4.72,0,0,1-1.37,1.64,6.35,6.35,0,0,1-2.05,1,8.73,8.73,0,0,1-2.55.36,10.9,10.9,0,0,1-3.57-.53A7.45,7.45,0,0,1,1,49.35L3.38,47a5,5,0,0,0,1.9,1.16,6.94,6.94,0,0,0,2.2.34A3.71,3.71,0,0,0,9.65,48a1.73,1.73,0,0,0,.74-1.49,1.52,1.52,0,0,0-.52-1.29,3.17,3.17,0,0,0-1.4-.59l-2.05-.27A6.5,6.5,0,0,1,3,42.89a4.33,4.33,0,0,1-1.25-3.38A4.92,4.92,0,0,1,3.36,35.7a6.43,6.43,0,0,1,4.5-1.46,9.19,9.19,0,0,1,3.14.5,7.72,7.72,0,0,1,2.57,1.59l-2.33,2.25a3.94,3.94,0,0,0-1.78-1,8.25,8.25,0,0,0-1.71-.2A2.62,2.62,0,0,0,5.86,38a1.88,1.88,0,0,0-.6,1.4,1.49,1.49,0,0,0,.56,1.25,2.92,2.92,0,0,0,1.39.53l2,.27A6.15,6.15,0,0,1,12.69,43,4.62,4.62,0,0,1,13.94,46.48Z"/><path class="cls-1" d="M26.14,51.57V44.46H20.5v7.11H17V34.41H20.5v6.87h5.64V34.41h3.59V51.57Z"/><path class="cls-1" d="M43.51,51.57l-1-3H36.64c-.19.5-.36,1-.53,1.5s-.35,1-.53,1.47H31.85l6.29-17.16h2.8L47.3,51.57ZM39.64,40l-2,5.61h3.86Z"/><path class="cls-1" d="M58.58,51.57l-3.35-6.73H53v6.73H49.45V34.41h6.84a6.4,6.4,0,0,1,2.39.43A5.51,5.51,0,0,1,60.48,36a4.7,4.7,0,0,1,1.11,1.67A5.57,5.57,0,0,1,62,39.71a4.56,4.56,0,0,1-.25,1.54A4.49,4.49,0,0,1,61,42.53a4.65,4.65,0,0,1-1,1,5,5,0,0,1-1.14.67l3.86,7.38Zm-.24-11.86a2.06,2.06,0,0,0-.6-1.54,2.31,2.31,0,0,0-1.66-.58H53v4.17h3.07a2.3,2.3,0,0,0,1.66-.56A2,2,0,0,0,58.34,39.71Z"/><path class="cls-1" d="M65.35,51.57V34.41H76.87v3.18h-8v3.69h6.8V44.5H68.9v3.86h8v3.21Z"/><path class="cls-1" d="M13.44,75l-1.28-1.5-.73.54a5.86,5.86,0,0,1-1,.53A7.13,7.13,0,0,1,9.2,75a6.75,6.75,0,0,1-1.64.18A6.15,6.15,0,0,1,3,73.69a5.38,5.38,0,0,1-1.5-4,4.08,4.08,0,0,1,.28-1.53,5.67,5.67,0,0,1,.73-1.3,6.88,6.88,0,0,1,1-1.07q.57-.48,1.14-.87a12.53,12.53,0,0,1-1.12-1.52A3.87,3.87,0,0,1,3,61.24a4.06,4.06,0,0,1,1.28-3.09A5.18,5.18,0,0,1,7.92,57a4.63,4.63,0,0,1,3.38,1.21,4.14,4.14,0,0,1,1.25,3.1,3.1,3.1,0,0,1-.5,1.77,6.32,6.32,0,0,1-1.39,1.4l-.39.32a3.28,3.28,0,0,1-.38.27l-.37.23c.45.55.92,1.1,1.41,1.64s1,1.09,1.44,1.64a8.6,8.6,0,0,0,.48-1.35,6.77,6.77,0,0,0,.27-1.64h3.35a9.45,9.45,0,0,1-1.82,5.56L18,75ZM6.6,67.08a5.25,5.25,0,0,0-1.16,1.07A2.35,2.35,0,0,0,5,69.65a2,2,0,0,0,.75,1.65,2.69,2.69,0,0,0,1.78.63,4.07,4.07,0,0,0,1.32-.2A4.29,4.29,0,0,0,10,71.07Zm2.6-5.77a1.3,1.3,0,0,0-.34-1A1.24,1.24,0,0,0,7.92,60a1.36,1.36,0,0,0-1,.36,1.3,1.3,0,0,0-.34,1,1.34,1.34,0,0,0,.34.85c.22.29.48.6.76.93a4.19,4.19,0,0,0,.43-.25l.21-.18A3.58,3.58,0,0,0,8.93,62,1.16,1.16,0,0,0,9.2,61.31Z"/><path class="cls-1" d="M33.4,69.69a6.14,6.14,0,0,1-2.16,4.09,6.5,6.5,0,0,1-4.17,1.38,6.37,6.37,0,0,1-2.59-.51,6.61,6.61,0,0,1-2.05-1.4,4.56,4.56,0,0,1-1-1.39,6.25,6.25,0,0,1-.49-1.57,11.18,11.18,0,0,1-.18-1.79c0-.64,0-1.34,0-2.09s0-1.41,0-2a11.44,11.44,0,0,1,.18-1.81A6.27,6.27,0,0,1,21.4,61a4.68,4.68,0,0,1,1-1.39,6.15,6.15,0,0,1,4.64-1.94,6.38,6.38,0,0,1,4.17,1.43,6.5,6.5,0,0,1,2.19,4.21H29.84a3.69,3.69,0,0,0-.9-1.73,2.78,2.78,0,0,0-3.88.19,2.83,2.83,0,0,0-.39.56,2.36,2.36,0,0,0-.24.81,9.81,9.81,0,0,0-.12,1.29c0,.53,0,1.2,0,2s0,1.46,0,2a9.81,9.81,0,0,0,.12,1.3,2.8,2.8,0,0,0,.24.84,1.87,1.87,0,0,0,.39.56,2.64,2.64,0,0,0,2,.86,2.5,2.5,0,0,0,1.87-.7,3.73,3.73,0,0,0,.9-1.73H33.3Z"/><path class="cls-1" d="M45.74,75V67.88H40.1V75H36.54V57.83H40.1V64.7h5.64V57.83h3.59V75Z"/><path class="cls-1" d="M63.1,75l-1-3H56.23c-.18.5-.36,1-.53,1.5s-.35,1-.53,1.47H51.44l6.29-17.16h2.81L66.89,75ZM59.24,63.37l-2,5.6h3.87Z"/><path class="cls-1" d="M69.05,75V57.83H72.6v14h7.32V75Z"/><path class="cls-1" d="M82.21,75V57.83h3.55v14h7.31V75Z"/><path class="cls-1" d="M95.37,75V57.83h11.51V61h-8V64.7h6.8v3.21h-6.8v3.87h8V75Z"/><path class="cls-1" d="M120.56,75l-7.32-10.63V75h-3.55V57.83h2.87l7.28,10.53V57.83h3.62V75Z"/><path class="cls-1" d="M139.53,71a5.45,5.45,0,0,1-1.27,2.11A6.34,6.34,0,0,1,136,74.7a7.25,7.25,0,0,1-2.62.46,6.37,6.37,0,0,1-2.59-.51,6.77,6.77,0,0,1-2.06-1.4,4.69,4.69,0,0,1-1-1.39,6.7,6.7,0,0,1-.5-1.57A11.21,11.21,0,0,1,127,68.5c0-.64,0-1.34,0-2.09s0-1.41,0-2a11.47,11.47,0,0,1,.17-1.81,6.71,6.71,0,0,1,.5-1.59,4.82,4.82,0,0,1,1-1.39,6.15,6.15,0,0,1,2-1.45,6.5,6.5,0,0,1,2.61-.49,7,7,0,0,1,2.65.46A6,6,0,0,1,138,59.35a6.43,6.43,0,0,1,1.28,1.83,7.64,7.64,0,0,1,.65,2.15h-3.59a3.37,3.37,0,0,0-1-1.84,2.82,2.82,0,0,0-1.93-.65,2.57,2.57,0,0,0-1.18.26,2.8,2.8,0,0,0-.83.63,2.85,2.85,0,0,0-.4.58,3.11,3.11,0,0,0-.24.82c-.05.34-.09.77-.12,1.3s0,1.18,0,2,0,1.46,0,2,.07,1,.12,1.3a3.55,3.55,0,0,0,.24.84,2.1,2.1,0,0,0,.4.56,2.62,2.62,0,0,0,.83.62,2.7,2.7,0,0,0,1.18.24,2.77,2.77,0,0,0,1.28-.28,3,3,0,0,0,.94-.68,2.88,2.88,0,0,0,.79-2.15v-.51h-3.11v-3h6.63v2.59A10.73,10.73,0,0,1,139.53,71Z"/><path class="cls-1" d="M143.28,75V57.83H154.8V61h-8V64.7h6.8v3.21h-6.8v3.87h8V75Z"/><polygon class="cls-1" points="123.55 113.56 121 106.11 114.05 106.11 111.41 99.37 103.84 99.37 106.29 106.01 98.84 106.01 101.83 113.56 109.05 113.56 111.81 121.12 119.57 121.12 116.71 113.56 123.55 113.56"/><polygon class="cls-1" points="96.29 106.32 101.29 93.34 102.72 96.72 110.37 96.72 104.97 82.94 97.72 82.94 82.81 121.12 90.67 121.12 93.74 113.56 99.17 113.56 96.29 106.32"/><path class="cls-1" d="M92.45,118.2v2.1h1.23v.49H91.89V118.2Z"/><path class="cls-1" d="M94.54,118.2v2.59H94V118.2Z"/><path class="cls-1" d="M94.84,118.69v-.49h2.07v.49h-.76v2.1h-.56v-2.1Z"/><path class="cls-1" d="M99.1,118.2v.46H97.74v.57H99v.46H97.74v.64H99.1v.46H97.18V118.2Z"/><path class="cls-1" d="M100.7,118.2a1,1,0,0,1,.36,0,.82.82,0,0,1,.28.14.53.53,0,0,1,.16.23.75.75,0,0,1,.06.31,1,1,0,0,1,0,.18.85.85,0,0,1,0,.17,1,1,0,0,1-.08.14.11.11,0,1,0,0,.21l.06.11,0,.13s0,.09,0,.14,0,.15,0,.22a1.36,1.36,0,0,0,0,.2.64.64,0,0,0,.06.18.47.47,0,0,0,.12.18h-.6a.6.6,0,0,1-.09-.15.9.9,0,0,1,0-.16,1.1,1.1,0,0,1,0-.18,1.5,1.5,0,0,0,0-.2l0-.12a.36.36,0,0,0,0-.11.24.24,0,0,0-.09-.08.25.25,0,0,0-.13,0H100v1h-.56V118.2Zm-.15,1.11.17,0,.15-.06a.32.32,0,0,0,.1-.1.38.38,0,0,0,0-.16.5.5,0,0,0,0-.12.7.7,0,0,0-.06-.09.41.41,0,0,0-.11-.07.32.32,0,0,0-.14,0H100v.65Z"/><path class="cls-1" d="M102.71,118.2h.6l1,2.59h-.6l-.2-.58h-1l-.2.58h-.59Zm0,1.59h.67l-.33-1h0Z"/><path class="cls-1" d="M106.24,119.07a.35.35,0,0,0-.06-.18.64.64,0,0,0-.13-.15.56.56,0,0,0-.17-.09.48.48,0,0,0-.2,0,.67.67,0,0,0-.33.08.6.6,0,0,0-.22.2.65.65,0,0,0-.12.28,1.24,1.24,0,0,0,0,.33.78.78,0,0,0,0,.22.73.73,0,0,0,.05.2.56.56,0,0,0,.09.17.47.47,0,0,0,.14.14.77.77,0,0,0,.18.1.75.75,0,0,0,.23,0,.85.85,0,0,0,.23,0,.57.57,0,0,0,.18-.12.5.5,0,0,0,.11-.19,1.55,1.55,0,0,0,.07-.23h.55a1.5,1.5,0,0,1-.12.44,1,1,0,0,1-.24.33.91.91,0,0,1-.35.22,1.21,1.21,0,0,1-.43.07,1.53,1.53,0,0,1-.38,0,1.46,1.46,0,0,1-.31-.14,1,1,0,0,1-.25-.21,1,1,0,0,1-.19-.27,1.51,1.51,0,0,1-.11-.32,1.37,1.37,0,0,1,0-.36,1.55,1.55,0,0,1,0-.37,1.73,1.73,0,0,1,.11-.32,1.07,1.07,0,0,1,.19-.28,1,1,0,0,1,.25-.21,1.09,1.09,0,0,1,.31-.14,1.52,1.52,0,0,1,.38-.05,1.34,1.34,0,0,1,.4.06,1.25,1.25,0,0,1,.34.19.79.79,0,0,1,.25.29,1,1,0,0,1,.13.4Z"/><path class="cls-1" d="M108.5,120.79h-.57v-1.05l-1-1.54h.67l.63,1,.6-1h.65l-1,1.54Z"/><path class="cls-1" d="M30.18,121.07V99.52l-6.83,13.36H18l-7-13.28v21.47H3.17V83h7.2l10.25,20.57L30.86,83h7.28v38.09Z"/><path class="cls-1" d="M47.68,121.07V83H73.25V90H55.57v8.19h15.1v7.14H55.57v8.57H73.25v7.13Z"/><path class="cls-2" d="M14,22.69a6.17,6.17,0,0,1-2.15,4.09,6.55,6.55,0,0,1-4.18,1.38,6.37,6.37,0,0,1-2.59-.51,6.61,6.61,0,0,1-2-1.4,4.52,4.52,0,0,1-1-1.38,6.32,6.32,0,0,1-.49-1.58,11.07,11.07,0,0,1-.18-1.79c0-.64,0-1.33,0-2.09s0-1.41,0-2.05a11.56,11.56,0,0,1,.18-1.81A6.27,6.27,0,0,1,2,14a4.52,4.52,0,0,1,1-1.38,6.12,6.12,0,0,1,4.64-1.95,6.38,6.38,0,0,1,4.18,1.44A6.49,6.49,0,0,1,14,16.27H10.42a3.73,3.73,0,0,0-.9-1.73,2.5,2.5,0,0,0-1.87-.7,2.45,2.45,0,0,0-2,.89,2.63,2.63,0,0,0-.39.57,2.3,2.3,0,0,0-.24.8,9.81,9.81,0,0,0-.12,1.3c0,.52,0,1.19,0,2s0,1.46,0,2A9.81,9.81,0,0,0,5,22.69a2.64,2.64,0,0,0,.24.84,1.92,1.92,0,0,0,.39.57,2.69,2.69,0,0,0,2,.85,2.46,2.46,0,0,0,1.87-.7,3.69,3.69,0,0,0,.9-1.73h3.46Z"/><path class="cls-2" d="M26.32,28V20.88H20.68V28H17.12V10.83h3.56v6.88h5.64V10.83h3.59V28Z"/><path class="cls-2" d="M43.68,28l-1-3H36.81c-.18.5-.36,1-.53,1.5s-.35,1-.53,1.47H32l6.29-17.16h2.81L47.47,28ZM39.82,16.37l-2,5.61H41.7Z"/><path class="cls-2" d="M60.5,28,53.18,17.36V28H49.63V10.83H52.5l7.28,10.53V10.83H63.4V28Z"/><path class="cls-2" d="M79.47,24a5.49,5.49,0,0,1-1.27,2.12,6.31,6.31,0,0,1-2.27,1.55,7.25,7.25,0,0,1-2.62.46,6.37,6.37,0,0,1-2.59-.51,6.77,6.77,0,0,1-2.06-1.4,4.65,4.65,0,0,1-1-1.38,6.78,6.78,0,0,1-.5-1.58A11.1,11.1,0,0,1,67,21.5c0-.64,0-1.33,0-2.09s0-1.41,0-2.05a11.58,11.58,0,0,1,.17-1.81,6.71,6.71,0,0,1,.5-1.59,4.65,4.65,0,0,1,1-1.38,6.11,6.11,0,0,1,2-1.45,6.5,6.5,0,0,1,2.61-.5,7,7,0,0,1,2.65.46,5.63,5.63,0,0,1,2,1.27,6.25,6.25,0,0,1,1.28,1.82,7.81,7.81,0,0,1,.65,2.16H76.25a3.37,3.37,0,0,0-1-1.85,2.82,2.82,0,0,0-1.93-.65,2.57,2.57,0,0,0-1.18.26,2.8,2.8,0,0,0-.83.63,3.16,3.16,0,0,0-.4.58,3.23,3.23,0,0,0-.24.82c0,.34-.09.78-.12,1.3s0,1.19,0,2,0,1.46,0,2,.07,1,.12,1.29a3.28,3.28,0,0,0,.24.84,2.16,2.16,0,0,0,.4.57,2.59,2.59,0,0,0,.83.61,2.7,2.7,0,0,0,1.18.24,2.89,2.89,0,0,0,2.22-1,2.88,2.88,0,0,0,.79-2.15v-.51H73.21v-3h6.63v2.6A10.7,10.7,0,0,1,79.47,24Z"/><path class="cls-2" d="M83.23,28V10.83H94.74V14h-8v3.7h6.8v3.21h-6.8v3.86h8V28Z"/><path class="cls-2" d="M12.92,46.68a4.89,4.89,0,0,1-.5,2.24,4.79,4.79,0,0,1-1.36,1.64,6.58,6.58,0,0,1-2.05,1,9.08,9.08,0,0,1-2.55.35,10.86,10.86,0,0,1-3.57-.53A7.45,7.45,0,0,1,0,49.55l2.36-2.32a5,5,0,0,0,1.9,1.16,6.94,6.94,0,0,0,2.2.34,3.71,3.71,0,0,0,2.17-.53,1.73,1.73,0,0,0,.74-1.49,1.55,1.55,0,0,0-.52-1.29,3.17,3.17,0,0,0-1.4-.59l-2-.27A6.46,6.46,0,0,1,2,43.09,4.33,4.33,0,0,1,.75,39.71,4.89,4.89,0,0,1,2.34,35.9a6.43,6.43,0,0,1,4.5-1.46,9.19,9.19,0,0,1,3.14.5,7.58,7.58,0,0,1,2.56,1.59l-2.32,2.25a3.94,3.94,0,0,0-1.78-1,8.25,8.25,0,0,0-1.71-.2,2.61,2.61,0,0,0-1.89.58,1.88,1.88,0,0,0-.6,1.4,1.49,1.49,0,0,0,.56,1.25,2.92,2.92,0,0,0,1.39.53l2,.27a6.19,6.19,0,0,1,3.47,1.56A4.66,4.66,0,0,1,12.92,46.68Z"/><path class="cls-2" d="M25.12,51.77V44.66H19.48v7.11H15.93V34.61h3.55v6.87h5.64V34.61h3.59V51.77Z"/><path class="cls-2" d="M42.48,51.77l-.95-3H35.61l-.53,1.5c-.17.5-.34,1-.53,1.47H30.83l6.29-17.16h2.8l6.36,17.16ZM38.62,40.15l-2,5.61H40.5Z"/><path class="cls-2" d="M57.56,51.77,54.21,45H52v6.73H48.43V34.61h6.84a6.44,6.44,0,0,1,2.39.43,5.46,5.46,0,0,1,1.79,1.15,4.86,4.86,0,0,1,1.12,1.67,5.57,5.57,0,0,1,.37,2,4.56,4.56,0,0,1-.25,1.54A4.76,4.76,0,0,1,60,42.73a4.65,4.65,0,0,1-1,1,5.21,5.21,0,0,1-1.14.67l3.86,7.38Zm-.24-11.86a2,2,0,0,0-.6-1.54,2.31,2.31,0,0,0-1.66-.58H52V42h3.07a2.35,2.35,0,0,0,1.66-.56A2,2,0,0,0,57.32,39.91Z"/><path class="cls-2" d="M64.33,51.77V34.61H75.84v3.18h-8v3.69h6.8V44.7h-6.8v3.86h8v3.21Z"/><path class="cls-2" d="M12.92,75.19l-1.23-1.44c-.21.16-.44.34-.7.52a5.71,5.71,0,0,1-.93.51,6.58,6.58,0,0,1-1.21.41,6.68,6.68,0,0,1-1.57.17,5.92,5.92,0,0,1-4.34-1.42A5.13,5.13,0,0,1,1.5,70.1a3.74,3.74,0,0,1,.28-1.47,5.09,5.09,0,0,1,.7-1.25,6.3,6.3,0,0,1,1-1c.36-.3.73-.58,1.09-.83a11.57,11.57,0,0,1-1.07-1.46A3.68,3.68,0,0,1,2.9,62a3.86,3.86,0,0,1,1.23-3,5,5,0,0,1,3.49-1.15,4.45,4.45,0,0,1,3.25,1.17,4,4,0,0,1,1.19,3,3,3,0,0,1-.47,1.69,5.88,5.88,0,0,1-1.34,1.35c-.13.12-.26.22-.37.31l-.36.26-.36.22c.43.52.88,1,1.35,1.57L11.89,69a7.66,7.66,0,0,0,.46-1.3,6.52,6.52,0,0,0,.26-1.57h3.21a9,9,0,0,1-1.74,5.33l3.18,3.73ZM6.36,67.6a4.82,4.82,0,0,0-1.11,1,2.22,2.22,0,0,0-.43,1.43,2,2,0,0,0,.72,1.59,2.54,2.54,0,0,0,1.7.6,3.81,3.81,0,0,0,1.27-.19,3.92,3.92,0,0,0,1.13-.63Zm2.49-5.54a1.32,1.32,0,0,0-.32-.92,1.19,1.19,0,0,0-.91-.34,1.33,1.33,0,0,0-1,.34,1.34,1.34,0,0,0,0,1.74c.22.28.46.57.74.89a2.62,2.62,0,0,0,.41-.24,1,1,0,0,0,.2-.17,3.25,3.25,0,0,0,.63-.59A1.08,1.08,0,0,0,8.85,62.06Z"/><path class="cls-2" d="M32.64,69.89A6.17,6.17,0,0,1,30.49,74a6.52,6.52,0,0,1-4.17,1.38,6.38,6.38,0,0,1-2.6-.51,6.61,6.61,0,0,1-2-1.4,4.68,4.68,0,0,1-1-1.39,6.25,6.25,0,0,1-.49-1.57A10.16,10.16,0,0,1,20,68.7c0-.64,0-1.34,0-2.09s0-1.41,0-2a10.4,10.4,0,0,1,.17-1.81,6.27,6.27,0,0,1,.49-1.59,4.68,4.68,0,0,1,1-1.39,6.16,6.16,0,0,1,4.65-1.94,6.34,6.34,0,0,1,4.17,1.43,6.54,6.54,0,0,1,2.18,4.21H29.09a3.7,3.7,0,0,0-.91-1.73,2.44,2.44,0,0,0-1.86-.7,2.46,2.46,0,0,0-2,.89,2.83,2.83,0,0,0-.39.56,2.36,2.36,0,0,0-.24.81,9.81,9.81,0,0,0-.12,1.29c0,.53,0,1.2,0,2s0,1.46,0,2a9.81,9.81,0,0,0,.12,1.3,2.8,2.8,0,0,0,.24.84,1.87,1.87,0,0,0,.39.56,2.71,2.71,0,0,0,.85.62,2.75,2.75,0,0,0,1.17.24,2.47,2.47,0,0,0,1.86-.7,3.75,3.75,0,0,0,.91-1.73h3.45Z"/><path class="cls-2" d="M45,75.19V68.08H39.34v7.11H35.78V58h3.56V64.9H45V58h3.59V75.19Z"/><path class="cls-2" d="M62.34,75.19l-1-3H55.47c-.18.5-.36,1-.53,1.5s-.35,1-.53,1.47H50.69L57,58h2.8l6.36,17.16ZM58.48,63.57l-2,5.6h3.86Z"/><path class="cls-2" d="M68.29,75.19V58h3.55V72h7.32v3.21Z"/><path class="cls-2" d="M81.45,75.19V58H85V72h7.32v3.21Z"/><path class="cls-2" d="M94.61,75.19V58h11.52v3.18h-8V64.9H105v3.21h-6.8V72h8v3.21Z"/><path class="cls-2" d="M119.8,75.19l-7.32-10.63V75.19h-3.55V58h2.87l7.28,10.53V58h3.62V75.19Z"/><path class="cls-2" d="M138.77,71.23a5.22,5.22,0,0,1-1.27,2.11,6.26,6.26,0,0,1-2.27,1.56,7.25,7.25,0,0,1-2.62.46,6.37,6.37,0,0,1-2.59-.51,6.61,6.61,0,0,1-2.05-1.4,4.68,4.68,0,0,1-1-1.39,6.25,6.25,0,0,1-.49-1.57,11.18,11.18,0,0,1-.18-1.79c0-.64,0-1.34,0-2.09s0-1.41,0-2a11.44,11.44,0,0,1,.18-1.81,6.27,6.27,0,0,1,.49-1.59,4.68,4.68,0,0,1,1-1.39,6.11,6.11,0,0,1,2-1.45,6.53,6.53,0,0,1,2.61-.49,7,7,0,0,1,2.65.46,5.76,5.76,0,0,1,2,1.26,6.43,6.43,0,0,1,1.28,1.83,7.64,7.64,0,0,1,.65,2.15h-3.59a3.36,3.36,0,0,0-1-1.84,2.84,2.84,0,0,0-1.94-.65,2.41,2.41,0,0,0-1.17.26,3,3,0,0,0-.84.63,2.46,2.46,0,0,0-.39.58,2.5,2.5,0,0,0-.24.82,9.81,9.81,0,0,0-.12,1.3c0,.52,0,1.18,0,2s0,1.46,0,2a9.81,9.81,0,0,0,.12,1.3,2.8,2.8,0,0,0,.24.84,1.87,1.87,0,0,0,.39.56,2.78,2.78,0,0,0,.84.62,2.66,2.66,0,0,0,1.17.24,2.84,2.84,0,0,0,1.29-.28,3.16,3.16,0,0,0,.94-.68,2.91,2.91,0,0,0,.78-2.15v-.52h-3.11v-3h6.63v2.59A10.73,10.73,0,0,1,138.77,71.23Z"/><path class="cls-2" d="M142.53,75.19V58h11.52v3.18h-8V64.9h6.8v3.21h-6.8V72h8v3.21Z"/><polygon class="cls-3" points="122.25 113.56 119.69 106.11 112.75 106.11 110.11 99.37 102.54 99.37 104.99 106.01 97.54 106.01 100.53 113.56 107.75 113.56 110.51 121.12 118.27 121.12 115.41 113.56 122.25 113.56"/><polygon class="cls-4" points="94.99 106.32 99.99 93.34 101.42 96.72 109.07 96.72 103.67 82.94 96.42 82.94 81.51 121.12 89.37 121.12 92.44 113.56 97.87 113.56 94.99 106.32"/><path class="cls-2" d="M91.91,118.2v2.1h1.23v.49H91.35V118.2Z"/><path class="cls-2" d="M94,118.2v2.59h-.56V118.2Z"/><path class="cls-2" d="M94.31,118.69v-.49h2.06v.49h-.76v2.1h-.56v-2.1Z"/><path class="cls-2" d="M98.56,118.2v.46H97.2v.57h1.26v.46H97.2v.64h1.37v.46H96.64V118.2Z"/><path class="cls-2" d="M100.16,118.2a1.07,1.07,0,0,1,.37,0,.87.87,0,0,1,.27.14.66.66,0,0,1,.17.23.75.75,0,0,1,.06.31,1,1,0,0,1,0,.18.85.85,0,0,1,0,.17,1,1,0,0,1-.08.14.47.47,0,0,1-.13.11.32.32,0,0,1,.1.1l.06.11,0,.13a.68.68,0,0,1,0,.14,1.7,1.7,0,0,1,0,.22,1.36,1.36,0,0,0,0,.2.64.64,0,0,0,.06.18.63.63,0,0,0,.12.18h-.6a.37.37,0,0,1-.08-.15.94.94,0,0,1,0-.16,1.1,1.1,0,0,1,0-.18,1.5,1.5,0,0,0,0-.2l0-.12a.36.36,0,0,0,0-.11.3.3,0,0,0-.08-.08.32.32,0,0,0-.14,0h-.67v1H98.9V118.2Zm-.15,1.11.17,0a.47.47,0,0,0,.15-.06.32.32,0,0,0,.1-.1.38.38,0,0,0,0-.16.5.5,0,0,0,0-.12l-.06-.09a.41.41,0,0,0-.11-.07.32.32,0,0,0-.14,0h-.68v.65Z"/><path class="cls-2" d="M102.17,118.2h.6l1,2.59h-.6l-.2-.58h-1l-.2.58h-.59Zm0,1.59h.67l-.32-1h0Z"/><path class="cls-2" d="M105.71,119.07a.48.48,0,0,0-.07-.18.47.47,0,0,0-.13-.15.56.56,0,0,0-.17-.09.48.48,0,0,0-.2,0,.67.67,0,0,0-.33.08.6.6,0,0,0-.22.2.79.79,0,0,0-.12.28,1.24,1.24,0,0,0,0,.33,1.5,1.5,0,0,0,0,.22,1.46,1.46,0,0,0,0,.2.56.56,0,0,0,.09.17.47.47,0,0,0,.14.14.77.77,0,0,0,.18.1.8.8,0,0,0,.23,0,.85.85,0,0,0,.23,0,.57.57,0,0,0,.18-.12.52.52,0,0,0,.12-.19.86.86,0,0,0,.06-.23h.55a1.5,1.5,0,0,1-.11.44,1.4,1.4,0,0,1-.24.33,1,1,0,0,1-.35.22,1.27,1.27,0,0,1-.44.07,1.53,1.53,0,0,1-.38,0,1.46,1.46,0,0,1-.31-.14,1.27,1.27,0,0,1-.25-.21,1,1,0,0,1-.19-.27,1.51,1.51,0,0,1-.11-.32,1.37,1.37,0,0,1,0-.36,1.55,1.55,0,0,1,0-.37,1.73,1.73,0,0,1,.11-.32,1.07,1.07,0,0,1,.19-.28,1.27,1.27,0,0,1,.25-.21,1.09,1.09,0,0,1,.31-.14,1.52,1.52,0,0,1,.38-.05,1.34,1.34,0,0,1,.4.06,1.25,1.25,0,0,1,.34.19.71.71,0,0,1,.25.29,1,1,0,0,1,.13.4Z"/><path class="cls-2" d="M108,120.79h-.57v-1.05l-1-1.54h.68l.62,1,.6-1H109l-1,1.54Z"/><path class="cls-4" d="M28.88,121.07V99.52l-6.83,13.36H16.74l-7-13.28v21.47H1.87V83h7.2l10.25,20.57L29.56,83h7.28v38.09Z"/><path class="cls-4" d="M46.38,121.07V83H72V90H54.27v8.19h15.1v7.14H54.27v8.57H72v7.13Z"/><path class="cls-2" d="M2.08,136.82a2.73,2.73,0,0,1-.76-.1,1.71,1.71,0,0,1-.63-.32,1.6,1.6,0,0,1-.43-.53,1.77,1.77,0,0,1-.16-.76,1.54,1.54,0,0,1,.5-1.17,2.07,2.07,0,0,1,1.48-.46h1.5v-.36a1,1,0,0,0-.29-.79,1.4,1.4,0,0,0-1-.26,1.83,1.83,0,0,0-.75.13,1.83,1.83,0,0,0-.53.38l-.72-.67a2.46,2.46,0,0,1,.92-.62,3.21,3.21,0,0,1,1.12-.18,3.72,3.72,0,0,1,1.18.17l1-.94.77.73-.88.84a1.91,1.91,0,0,1,.3,1.11v3.73H3.58v-2.43H2.24c-.69,0-1,.26-1,.77a.73.73,0,0,0,.26.59,1.29,1.29,0,0,0,.79.2v.94Z"/><path class="cls-2" d="M10.08,135.08a1.66,1.66,0,0,1-.14.66,1.56,1.56,0,0,1-.41.55,2.13,2.13,0,0,1-.68.39,2.87,2.87,0,0,1-1,.14,3.16,3.16,0,0,1-1.28-.22,3.58,3.58,0,0,1-1-.73l.69-.75a2.93,2.93,0,0,0,.7.54,1.8,1.8,0,0,0,.86.18,1.3,1.3,0,0,0,.87-.22.71.71,0,0,0,.24-.54.53.53,0,0,0-.25-.48,1.78,1.78,0,0,0-.57-.22l-.44-.1a3.9,3.9,0,0,1-1.32-.52,1.15,1.15,0,0,1-.48-1,1.54,1.54,0,0,1,.49-1.15,2,2,0,0,1,1.48-.48,3,3,0,0,1,1.07.19,3.71,3.71,0,0,1,1,.59l-.74.7a3.3,3.3,0,0,0-.63-.38,1.63,1.63,0,0,0-.67-.13,1,1,0,0,0-.68.19.65.65,0,0,0-.2.47.37.37,0,0,0,.24.34,3.28,3.28,0,0,0,.64.23l.51.13a4.12,4.12,0,0,1,.65.2,2.63,2.63,0,0,1,.55.31,1.31,1.31,0,0,1,.37.47A1.62,1.62,0,0,1,10.08,135.08Z"/><path class="cls-2" d="M10.27,129.13v1H6.86v-.79l.45-.11a.25.25,0,0,0,.21-.28c0-.16-.18-.22-.53-.19v-.94a2.22,2.22,0,0,1,1.12.24.85.85,0,0,1,.42.79.81.81,0,0,1,0,.16.45.45,0,0,1,0,.16Z"/><path class="cls-2" d="M10.52,132.15a2.26,2.26,0,0,1,.8-.77,2.16,2.16,0,0,1,1.08-.27A1.7,1.7,0,0,1,14.31,133v3.76h-1.1V133a1.14,1.14,0,0,0-.18-.68.74.74,0,0,0-.63-.25,1.16,1.16,0,0,0-1,.56Z"/><path class="cls-2" d="M15.79,135a1.34,1.34,0,0,0,.38.65.82.82,0,0,0,.58.23.8.8,0,0,0,.65-.25,1,1,0,0,0,.2-.68v-2.82h-.77v-.94h1.89V135a1.8,1.8,0,0,1-.51,1.38,2.06,2.06,0,0,1-1.46.48,2,2,0,0,1-1.23-.36,2.23,2.23,0,0,1-.72-1Z"/><path class="cls-2" d="M21.26,136.75H20.15v-3.5a2.37,2.37,0,0,1,.17-.9,2.14,2.14,0,0,1,.48-.69,1.79,1.79,0,0,1,.84-.44,4.69,4.69,0,0,1,.94-.11,4.53,4.53,0,0,1,.94.11,1.78,1.78,0,0,1,.85.44,2.14,2.14,0,0,1,.48.69,2.37,2.37,0,0,1,.17.9v3.5H23.91v-3.4a1.21,1.21,0,0,0-.35-1,1.74,1.74,0,0,0-1.94,0,1.17,1.17,0,0,0-.36.9v.21a1.92,1.92,0,0,1,.45,0h.93v.91h-.82a.55.55,0,0,0-.45.15.65.65,0,0,0-.11.43Z"/><path class="cls-2" d="M24,138.79a.45.45,0,0,0,0-.21s-.07,0-.13,0h-.42v-1h.49a2.16,2.16,0,0,1,.54.05.77.77,0,0,1,.36.18.83.83,0,0,1,.2.36,2.65,2.65,0,0,1,.06.62v1H24Z"/><path class="cls-2" d="M26.58,133.45,26,132.7a3,3,0,0,1,2.7-1.59,2.7,2.7,0,0,1,1.89.57,2.11,2.11,0,0,1,.61,1.63v1.25a1.52,1.52,0,0,0,.26.94.87.87,0,0,0,.75.34,1,1,0,0,0,.77-.34,1.31,1.31,0,0,0,.33-.94v-3.39h1.1v5.58h-1.1v-.49a2.53,2.53,0,0,1-.55.41,1.46,1.46,0,0,1-.63.14,2.05,2.05,0,0,1-1.47-.53,2.09,2.09,0,0,1-.56-1.6v-1.29a1.24,1.24,0,0,0-.37-1,1.59,1.59,0,0,0-1-.3,2,2,0,0,0-.72.13,1.82,1.82,0,0,0-.68.46,1.12,1.12,0,0,0,.18.28l.18.25v2.13a.68.68,0,0,0,.06.31q.06.12.27.12h.55v1h-.66a1.23,1.23,0,0,1-1-.37,1.56,1.56,0,0,1-.31-1Z"/><path class="cls-2" d="M37,136.75h-1.1v-3.5a2.37,2.37,0,0,1,.17-.9,2,2,0,0,1,.48-.69,1.79,1.79,0,0,1,.84-.44,4.61,4.61,0,0,1,.94-.11,4.53,4.53,0,0,1,.94.11,1.78,1.78,0,0,1,.85.44,2,2,0,0,1,.47.69,2.19,2.19,0,0,1,.18.9v3.5H39.64v-3.4a1.21,1.21,0,0,0-.35-1,1.74,1.74,0,0,0-1.94,0,1.21,1.21,0,0,0-.37.9v.21a2,2,0,0,1,.46,0h.93v.91h-.82a.55.55,0,0,0-.45.15.65.65,0,0,0-.12.43Z"/><path class="cls-2" d="M39.64,128h1.11v2.05H39.64Z"/><path class="cls-2" d="M41.52,132.15a2.26,2.26,0,0,1,.8-.77,2.16,2.16,0,0,1,1.08-.27A1.69,1.69,0,0,1,45.31,133v3.76h-1.1V133a1.14,1.14,0,0,0-.18-.68.74.74,0,0,0-.63-.25,1.17,1.17,0,0,0-1,.56Z"/><path class="cls-2" d="M47.86,131.17v.63a1.81,1.81,0,0,1,.68-.54,2,2,0,0,1,.8-.16,2.16,2.16,0,0,1,.81.15,1.71,1.71,0,0,1,.62.44,1.89,1.89,0,0,1,.39.66,2.25,2.25,0,0,1,.14.84v3.56H50.17v-3.4a1.2,1.2,0,0,0-.33-.95,1.17,1.17,0,0,0-.81-.29.88.88,0,0,0-.41.1,1.48,1.48,0,0,0-.38.29,1.45,1.45,0,0,0-.35,1v3.26H46.75v-5.58Z"/><path class="cls-2" d="M46.74,129.26h3.48v-.85H51.3v1.72H46.74Z"/><path class="cls-2" d="M50.24,125.66H51.3v2H50.24Z"/><path class="cls-2" d="M52.74,131.17h1.12v4.16a.68.68,0,0,0,.06.31c0,.08.12.12.26.12h.55v1h-.66a1.23,1.23,0,0,1-1-.37,1.56,1.56,0,0,1-.31-1Zm2.6,0h1.12v4.16a.68.68,0,0,0,.06.31c0,.08.12.12.26.12h.55v1h-.66a1.23,1.23,0,0,1-1-.37,1.56,1.56,0,0,1-.31-1Z"/><path class="cls-2" d="M59.59,132.26a1,1,0,0,0-.3.42,1.72,1.72,0,0,0-.1.62v1.86a.78.78,0,0,0,.11.45.54.54,0,0,0,.44.15h.5v1h-.6a1.54,1.54,0,0,1-1.18-.42,1.65,1.65,0,0,1-.39-1.15v-2a2.21,2.21,0,0,1,.18-.91,1.8,1.8,0,0,1,1-1,3.63,3.63,0,0,1,.61-.2l.79.8.77-.8a2.5,2.5,0,0,1,.62.2,1.87,1.87,0,0,1,.48.3,2,2,0,0,1,.66,1.59v3.56H62V133.3a1.7,1.7,0,0,0-.1-.61.93.93,0,0,0-.3-.43l-.61.61a.54.54,0,0,1-.41.16.58.58,0,0,1-.39-.16Z"/><path class="cls-2" d="M65.76,133.21v3.54H64.65v-3.29l-.54-.74a3.42,3.42,0,0,1,1.14-1.21,2.92,2.92,0,0,1,1.56-.4,2.65,2.65,0,0,1,1.88.58,2.08,2.08,0,0,1,.62,1.63v3.43h-1.1v-3.34a1.26,1.26,0,0,0-.37-1,1.59,1.59,0,0,0-1-.3,2.09,2.09,0,0,0-.72.14,1.9,1.9,0,0,0-.67.44Z"/><path class="cls-2" d="M72.26,132.26a1,1,0,0,0-.3.42,1.72,1.72,0,0,0-.1.62v1.86a.71.71,0,0,0,.12.45.51.51,0,0,0,.43.15h.5v1h-.59a1.57,1.57,0,0,1-1.19-.42,1.65,1.65,0,0,1-.39-1.15v-2a2.21,2.21,0,0,1,.18-.91,1.8,1.8,0,0,1,1-1,3.63,3.63,0,0,1,.61-.2l.79.8.77-.8a2.37,2.37,0,0,1,.62.2,1.87,1.87,0,0,1,.48.3,2,2,0,0,1,.66,1.59v3.56H74.69V133.3a1.7,1.7,0,0,0-.1-.61.93.93,0,0,0-.3-.43l-.61.61a.54.54,0,0,1-.4.16.58.58,0,0,1-.4-.16Z"/><path class="cls-2" d="M74.69,128H75.8v2.05H74.69Z"/><path class="cls-2" d="M76.58,132.15a2.24,2.24,0,0,1,.79-.77,2.18,2.18,0,0,1,1.09-.27,1.91,1.91,0,0,1,1.43.49,1.88,1.88,0,0,1,.48,1.39v3.76H79.26V133a1.14,1.14,0,0,0-.18-.68.73.73,0,0,0-.62-.25,1.18,1.18,0,0,0-1,.56Z"/><path class="cls-2" d="M81.85,135a1.33,1.33,0,0,0,.37.65.85.85,0,0,0,.58.23.84.84,0,0,0,.66-.25,1.1,1.1,0,0,0,.2-.68v-2.82h-.78v-.94h1.9V135a1.8,1.8,0,0,1-.51,1.38,2.07,2.07,0,0,1-1.47.48,2,2,0,0,1-1.23-.36,2.38,2.38,0,0,1-.72-1Z"/><path class="cls-2" d="M1.56,4.79a.76.76,0,0,0,.19.33.43.43,0,0,0,.3.11.43.43,0,0,0,.34-.12.54.54,0,0,0,.1-.35V3.31h-.4V2.83h1V4.77a.91.91,0,0,1-.27.71,1,1,0,0,1-.75.25,1,1,0,0,1-.63-.19A1.17,1.17,0,0,1,1.05,5Z"/><path class="cls-2" d="M3.46,3.33a1.17,1.17,0,0,1,.41-.39,1.06,1.06,0,0,1,.56-.14,1,1,0,0,1,.74.25,1,1,0,0,1,.24.71V5.7H4.84V3.78a.61.61,0,0,0-.09-.35.38.38,0,0,0-.32-.13.6.6,0,0,0-.51.29Z"/><path class="cls-2" d="M7.91,5.7V5.37a.93.93,0,0,1-.35.28,1.15,1.15,0,0,1-.41.08.91.91,0,0,1-.41-.08.87.87,0,0,1-.32-.22,1.05,1.05,0,0,1-.2-.34,1.18,1.18,0,0,1-.07-.43V2.83h.58V4.57a.63.63,0,0,0,.17.49.59.59,0,0,0,.41.15.41.41,0,0,0,.21,0A.66.66,0,0,0,7.71,5a.83.83,0,0,0,.14-.22A.88.88,0,0,0,7.9,4.5V2.83h.58V5.7Z"/><path class="cls-2" d="M9.39,4.92a.79.79,0,0,0,.27.21.61.61,0,0,0,.3.08A.5.5,0,0,0,10.4,5a.73.73,0,0,0,.15-.47V4a.78.78,0,0,0-.14-.46A.51.51,0,0,0,10,3.31a.62.62,0,0,0-.34.11.77.77,0,0,0-.26.32l-.5-.25A1.29,1.29,0,0,1,9.33,3,1.18,1.18,0,0,1,10,2.8a1.12,1.12,0,0,1,.85.32,1.17,1.17,0,0,1,.3.84v.59A1.63,1.63,0,0,1,11,5a1,1,0,0,1-.21.37,1,1,0,0,1-.35.26,1.38,1.38,0,0,1-.52.09,1.27,1.27,0,0,1-.52-.12A1.23,1.23,0,0,1,9,5.24Z"/><path class="cls-2" d="M10.09,1.58q0,.27.09.27h1.37v.44H10.12a.68.68,0,0,1-.2,0,.46.46,0,0,1-.18-.1A.91.91,0,0,1,9.61,2a1.18,1.18,0,0,1,0-.37Z"/><path class="cls-2" d="M13.48,5.7V5.37a1,1,0,0,1-.35.28,1.15,1.15,0,0,1-.41.08.91.91,0,0,1-.41-.08A.8.8,0,0,1,12,5.43a1.05,1.05,0,0,1-.2-.34,1.18,1.18,0,0,1-.07-.43V2.83h.58V4.57a.63.63,0,0,0,.17.49.58.58,0,0,0,.41.15.41.41,0,0,0,.21,0A.66.66,0,0,0,13.28,5a.61.61,0,0,0,.13-.22.68.68,0,0,0,.06-.29V2.83h.58V5.7Z"/><path class="cls-2" d="M15,4.92a.71.71,0,0,0,.27.21.61.61,0,0,0,.3.08A.5.5,0,0,0,16,5a.73.73,0,0,0,.14-.47V4A.78.78,0,0,0,16,3.5a.51.51,0,0,0-.45-.19.62.62,0,0,0-.34.11.7.7,0,0,0-.26.32l-.5-.25A1.22,1.22,0,0,1,14.9,3a1.16,1.16,0,0,1,.63-.18,1.12,1.12,0,0,1,.85.32,1.16,1.16,0,0,1,.29.84v.59a1.63,1.63,0,0,1-.06.45,1.12,1.12,0,0,1-.21.37,1,1,0,0,1-.35.26,1.38,1.38,0,0,1-.52.09A1.27,1.27,0,0,1,15,5.6a1.23,1.23,0,0,1-.46-.36Z"/><path class="cls-2" d="M14.42,1.85h2.13v.44H14.42Z"/><path class="cls-2" d="M17.84,3.62l.07-.09a.16.16,0,0,0,0-.08.14.14,0,0,0-.05-.12.12.12,0,0,0-.12,0,.29.29,0,0,0-.15.06l-.16.11L17,3.17a1.06,1.06,0,0,1,.74-.36.77.77,0,0,1,.51.17.63.63,0,0,1,.19.47.48.48,0,0,1-.07.26,1.59,1.59,0,0,1-.17.25l-.31.37a.12.12,0,0,0,0,.08s0,.08,0,.12V4.7a.54.54,0,0,0,.13.37.41.41,0,0,0,.36.16.43.43,0,0,0,.48-.47v-1a.17.17,0,0,0-.07-.14l-.12-.1-.1,0a.13.13,0,0,1,0-.07.12.12,0,0,1,0-.1.37.37,0,0,1,.11-.13l.84-.81.4.37-.64.6a.59.59,0,0,1,.13.17.55.55,0,0,1,.06.26v1a1,1,0,0,1-.07.39,1,1,0,0,1-.22.3,1.05,1.05,0,0,1-.34.2,1.16,1.16,0,0,1-.42.07A1.12,1.12,0,0,1,18,5.65a1,1,0,0,1-.33-.22.87.87,0,0,1-.22-.32,1.37,1.37,0,0,1-.09-.4V4.45a.86.86,0,0,1,0-.24A.71.71,0,0,1,17.47,4Z"/><path class="cls-2" d="M19.84,3.33a1.17,1.17,0,0,1,.41-.39,1,1,0,0,1,.56-.14,1,1,0,0,1,.73.25.93.93,0,0,1,.25.71V5.7h-.57V3.78a.61.61,0,0,0-.09-.35.38.38,0,0,0-.32-.13.6.6,0,0,0-.51.29Z"/><path class="cls-2" d="M23.14,3.88V5.7h-.57V4l-.28-.39A1.86,1.86,0,0,1,22.88,3a1.56,1.56,0,0,1,.8-.2,1.39,1.39,0,0,1,1,.29,1.07,1.07,0,0,1,.32.84V5.7h-.57V4a.64.64,0,0,0-.18-.52.81.81,0,0,0-.54-.16,1.15,1.15,0,0,0-.36.07A1,1,0,0,0,23,3.6Z"/><path class="cls-2" d="M25.36,3.33a1.17,1.17,0,0,1,.41-.39,1,1,0,0,1,.56-.14,1,1,0,0,1,.73.25,1,1,0,0,1,.25.71V5.7h-.57V3.78a.61.61,0,0,0-.09-.35.4.4,0,0,0-.32-.13.63.63,0,0,0-.52.29Z"/><path class="cls-2" d="M30.06,4.84a.72.72,0,0,1-.07.33.86.86,0,0,1-.21.29,1.07,1.07,0,0,1-.35.2,1.51,1.51,0,0,1-.5.07,1.54,1.54,0,0,1-.65-.12,1.57,1.57,0,0,1-.52-.37l.36-.38a1.57,1.57,0,0,0,.35.27.88.88,0,0,0,.45.1.63.63,0,0,0,.44-.12.32.32,0,0,0,.13-.27.3.3,0,0,0-.13-.25,1.26,1.26,0,0,0-.29-.12l-.23,0a2,2,0,0,1-.68-.26.59.59,0,0,1-.24-.52.8.8,0,0,1,.25-.6,1.07,1.07,0,0,1,.76-.24,1.42,1.42,0,0,1,.55.1,1.66,1.66,0,0,1,.5.3l-.39.36a1.4,1.4,0,0,0-.32-.2.93.93,0,0,0-.34-.06.49.49,0,0,0-.35.1.3.3,0,0,0-.1.24.19.19,0,0,0,.12.17,2,2,0,0,0,.33.12l.26.06.34.11a1,1,0,0,1,.28.16A.55.55,0,0,1,30,4.5.69.69,0,0,1,30.06,4.84Z"/><path class="cls-2" d="M30.63,2.83h.58V5a.63.63,0,0,0,0,.16s.07.06.14.06h.28V5.7h-.34a.63.63,0,0,1-.52-.2A.76.76,0,0,1,30.63,5Z"/><path class="cls-2" d="M33.8,2.83l.68,1.93.28-1.93h.58L34.85,5.7h-.5l-.75-2-.75,2h-.51l-.48-2.87h.57l.29,1.93.68-1.93Z"/><path class="cls-2" d="M32,1.85h3.2v.44H32Z"/><path class="cls-2" d="M34.62,0h.54V1.05h-.54Z"/><path class="cls-2" d="M35.89,5.7V2.83h.59V4.5a.68.68,0,0,0,.05.29.61.61,0,0,0,.13.22.66.66,0,0,0,.19.15.42.42,0,0,0,.22,0,.57.57,0,0,0,.4-.15.6.6,0,0,0,.17-.49V2.83h.58V4.66a1.18,1.18,0,0,1-.07.43,1.05,1.05,0,0,1-.2.34.8.8,0,0,1-.32.22.91.91,0,0,1-.41.08,1.15,1.15,0,0,1-.41-.08,1,1,0,0,1-.35-.28V5.7Z"/><path class="cls-2" d="M40.06,4.82a.28.28,0,0,1,.2-.08.32.32,0,0,1,.21.08l.31.31a.41.41,0,0,0,.15-.21A.83.83,0,0,0,41,4.6V2.83h.56V4.66a1.05,1.05,0,0,1-.34.82,1.67,1.67,0,0,1-.24.15,1.5,1.5,0,0,1-.32.1l-.4-.41-.4.41a1.42,1.42,0,0,1-.31-.11.89.89,0,0,1-.24-.14,1,1,0,0,1-.25-.36,1,1,0,0,1-.1-.46v-1a.8.8,0,0,1,.21-.59.75.75,0,0,1,.6-.22h.31v.51h-.26a.25.25,0,0,0-.22.08.34.34,0,0,0-.06.22v1a1,1,0,0,0,0,.32.49.49,0,0,0,.16.21Z"/><path class="cls-2" d="M43.08,5.73a1.6,1.6,0,0,1-.39-.05,1.07,1.07,0,0,1-.32-.16.74.74,0,0,1-.22-.28.8.8,0,0,1-.09-.39.79.79,0,0,1,.26-.6A1,1,0,0,1,43.08,4h.77V3.83a.53.53,0,0,0-.15-.41.72.72,0,0,0-.49-.13.88.88,0,0,0-.39.07,1,1,0,0,0-.27.19l-.37-.34a1.27,1.27,0,0,1,.47-.32,1.72,1.72,0,0,1,.58-.09c.8,0,1.2.32,1.2,1V5.7h-.58V4.45h-.69c-.35,0-.53.13-.53.39a.36.36,0,0,0,.14.3.62.62,0,0,0,.4.11v.48Z"/><path class="cls-2" d="M46.27,4.82a.28.28,0,0,1,.2-.08.29.29,0,0,1,.21.08l.31.31a.49.49,0,0,0,.16-.21,1.07,1.07,0,0,0,.05-.32V2.83h.57V4.66a1.08,1.08,0,0,1-.34.82,1.83,1.83,0,0,1-.25.15,1.41,1.41,0,0,1-.31.1l-.4-.41-.41.41a1.63,1.63,0,0,1-.31-.11,1.38,1.38,0,0,1-.24-.14,1.16,1.16,0,0,1-.25-.36,1.11,1.11,0,0,1-.09-.46v-1a.84.84,0,0,1,.2-.59A.79.79,0,0,1,46,2.83h.3v.51H46c-.11,0-.19,0-.22.08a.29.29,0,0,0-.07.22v1a.79.79,0,0,0,.06.32.41.41,0,0,0,.15.21Z"/><path class="cls-2" d="M49.3,5.73a1.75,1.75,0,0,1-.4-.05,1.07,1.07,0,0,1-.32-.16,1,1,0,0,1-.22-.28.93.93,0,0,1-.08-.39.79.79,0,0,1,.25-.6A1.08,1.08,0,0,1,49.3,4h.76V3.83a.53.53,0,0,0-.15-.41.72.72,0,0,0-.49-.13.86.86,0,0,0-.38.07.92.92,0,0,0-.28.19l-.37-.34a1.3,1.3,0,0,1,.48-.32,1.66,1.66,0,0,1,.57-.09c.8,0,1.2.32,1.2,1V5.7h-.58V4.45h-.69c-.35,0-.52.13-.52.39a.35.35,0,0,0,.13.3.65.65,0,0,0,.41.11v.48Z"/><path class="cls-2" d="M48.3,1.85h2.34v.44H48.3Z"/><path class="cls-2" d="M52.16,3.39A.49.49,0,0,0,52,3.6a1.07,1.07,0,0,0,0,.32v1a.39.39,0,0,0,.06.23.29.29,0,0,0,.23.07h.25V5.7h-.3a.81.81,0,0,1-.61-.22.83.83,0,0,1-.2-.59v-1a1.14,1.14,0,0,1,.09-.46.9.9,0,0,1,.25-.35A.7.7,0,0,1,52,2.9l.31-.11.41.41.39-.41.32.1a1.2,1.2,0,0,1,.25.16,1,1,0,0,1,.33.81V5.7h-.56V3.92a.78.78,0,0,0-.06-.31.4.4,0,0,0-.15-.22l-.31.31a.3.3,0,0,1-.41,0Z"/><path class="cls-2" d="M56.2,2.83h.57V5a.35.35,0,0,0,0,.16s.07.06.14.06h.28V5.7h-.34a.65.65,0,0,1-.53-.2A.82.82,0,0,1,56.2,5Zm1.33,0h.58V5a.35.35,0,0,0,0,.16s.06.06.13.06h.29V5.7h-.34a.64.64,0,0,1-.53-.2A.82.82,0,0,1,57.53,5Z"/><path class="cls-2" d="M59.73,5.73a1.6,1.6,0,0,1-.39-.05A1.26,1.26,0,0,1,59,5.52a1,1,0,0,1-.22-.28.93.93,0,0,1-.08-.39.79.79,0,0,1,.26-.6A1,1,0,0,1,59.73,4h.77V3.83a.53.53,0,0,0-.15-.41.74.74,0,0,0-.49-.13.88.88,0,0,0-.39.07,1,1,0,0,0-.27.19l-.37-.34a1.2,1.2,0,0,1,.47-.32,1.72,1.72,0,0,1,.58-.09c.8,0,1.2.32,1.2,1V5.7H60.5V4.45h-.69c-.35,0-.53.13-.53.39a.35.35,0,0,0,.13.3.67.67,0,0,0,.41.11v.48Z"/><path class="cls-2" d="M62.21,3.18a1.64,1.64,0,0,0,0,.18c0,.05,0,.07.06.07h.75v.5h-.81a.46.46,0,0,1-.19,0,.41.41,0,0,1-.18-.12,1,1,0,0,1-.13-.23,1.68,1.68,0,0,1-.06-.36Zm0,1.39q0,.1,0,.18s0,.07.06.07h.75v.49h-.81l-.19,0a.55.55,0,0,1-.18-.13.82.82,0,0,1-.13-.23,1.48,1.48,0,0,1-.06-.35Z"/><path class="cls-2" d="M64.29,5.7h-.57V3.9a1.19,1.19,0,0,1,.09-.47,1.09,1.09,0,0,1,.24-.35.88.88,0,0,1,.44-.22,1.95,1.95,0,0,1,1,0,.88.88,0,0,1,.44.22,1.09,1.09,0,0,1,.24.35,1.19,1.19,0,0,1,.09.47V5.7h-.57V4a.6.6,0,0,0-.18-.49.87.87,0,0,0-1,0,.6.6,0,0,0-.19.46V4l.23,0H65v.47h-.42a.29.29,0,0,0-.23.07.37.37,0,0,0-.06.23Z"/><path class="cls-2" d="M65.67,6.74c0-.06,0-.09,0-.11l-.06,0h-.21v-.5h.24l.28,0a.32.32,0,0,1,.18.1.33.33,0,0,1,.11.18,1.39,1.39,0,0,1,0,.32v.51h-.55Z"/><path class="cls-2" d="M67,4l-.27-.38a1.53,1.53,0,0,1,1.38-.82,1.41,1.41,0,0,1,1,.29,1.08,1.08,0,0,1,.32.84v.64a.74.74,0,0,0,.13.48.44.44,0,0,0,.38.18.52.52,0,0,0,.4-.18.69.69,0,0,0,.17-.48V2.83h.56V5.7H70.5V5.44a1.28,1.28,0,0,1-.28.21.72.72,0,0,1-.33.07,1,1,0,0,1-.75-.27,1,1,0,0,1-.29-.82V4a.61.61,0,0,0-.19-.52.85.85,0,0,0-.54-.15,1.24,1.24,0,0,0-.37.06,1.06,1.06,0,0,0-.34.24.67.67,0,0,0,.09.14l.09.13V5a.35.35,0,0,0,0,.16s.07.06.14.06h.29V5.7H67.7a.63.63,0,0,1-.52-.2A.76.76,0,0,1,67,5Z"/><path class="cls-2" d="M74.36,5.7h-.58V4a.64.64,0,0,0-.18-.52.76.76,0,0,0-.53-.16,1.15,1.15,0,0,0-.37.06.85.85,0,0,0-.35.23l.18.27V5a.7.7,0,0,1-.09.39.58.58,0,0,1-.22.22.71.71,0,0,1-.28.09l-.25,0-.1-.51a.47.47,0,0,0,.22,0,.23.23,0,0,0,.11-.07A.3.3,0,0,0,72,5V4l-.27-.39A1.83,1.83,0,0,1,72.27,3a1.61,1.61,0,0,1,.8-.2,1.44,1.44,0,0,1,1,.29,1.15,1.15,0,0,1,.32.84Z"/><path class="cls-2" d="M74.76,3.33a1.09,1.09,0,0,1,.41-.39,1,1,0,0,1,.55-.14,1,1,0,0,1,.74.25,1,1,0,0,1,.24.71V5.7h-.56V3.78a.61.61,0,0,0-.1-.35.38.38,0,0,0-.32-.13.6.6,0,0,0-.51.29Z"/><path class="cls-2" d="M79.2,2.83l.69,1.93.28-1.93h.57L80.25,5.7h-.49l-.76-2-.75,2h-.5l-.49-2.87h.58l.28,1.93.69-1.93Z"/><path class="cls-2" d="M83.4,3.88V5.7h-.57V4l-.27-.39A1.83,1.83,0,0,1,83.14,3a1.58,1.58,0,0,1,.8-.2,1.44,1.44,0,0,1,1,.29,1.1,1.1,0,0,1,.31.84V5.7h-.56V4a.64.64,0,0,0-.19-.52.81.81,0,0,0-.54-.16,1.15,1.15,0,0,0-.36.07,1.12,1.12,0,0,0-.35.23Z"/><path class="cls-2" d="M85.62,3.33A1.17,1.17,0,0,1,86,2.94a1.06,1.06,0,0,1,.56-.14,1,1,0,0,1,.73.25.93.93,0,0,1,.25.71V5.7H87V3.78a.61.61,0,0,0-.09-.35.38.38,0,0,0-.32-.13.6.6,0,0,0-.51.29Z"/><path class="cls-2" d="M90.32,4.84a.72.72,0,0,1-.07.33.72.72,0,0,1-.2.29,1.13,1.13,0,0,1-.36.2,1.45,1.45,0,0,1-.49.07,1.56,1.56,0,0,1-.66-.12A1.67,1.67,0,0,1,88,5.24l.36-.38a1.41,1.41,0,0,0,.36.27.82.82,0,0,0,.44.1.67.67,0,0,0,.45-.12.34.34,0,0,0,.12-.27.28.28,0,0,0-.13-.25,1.1,1.1,0,0,0-.29-.12l-.23,0a1.84,1.84,0,0,1-.67-.26.58.58,0,0,1-.25-.52.8.8,0,0,1,.25-.6,1.07,1.07,0,0,1,.76-.24,1.38,1.38,0,0,1,.55.1,1.66,1.66,0,0,1,.5.3l-.38.36a1.66,1.66,0,0,0-.32-.2,1,1,0,0,0-.35-.06.49.49,0,0,0-.35.1.33.33,0,0,0-.1.24.19.19,0,0,0,.12.17,2,2,0,0,0,.33.12l.26.06.34.11a1,1,0,0,1,.28.16.65.65,0,0,1,.19.24A.83.83,0,0,1,90.32,4.84Z"/><path class="cls-2" d="M91.62,5a.79.79,0,0,0,0,.17s.07.06.15.06h.27V5.7h-.33a.62.62,0,0,1-.53-.22.91.91,0,0,1-.15-.54V2.37c0-.06,0-.13,0-.22a.7.7,0,0,1,.11-.23h-.8V1.45h1.68l.1.44a.55.55,0,0,0-.41.14.45.45,0,0,0-.13.34Z"/><path class="cls-2" d="M94.32,2.83,95,4.76l.51-3.31h.58L95.38,5.7h-.5l-.75-2-.76,2h-.5l-.48-2.87H93l.28,1.93.69-1.93Z"/><path class="cls-2" d="M98.19,2.83l.68,1.93.52-3.31H100L99.24,5.7h-.5l-.75-2-.75,2h-.51l-.48-2.87h.57l.29,1.93.68-1.93Z"/><path class="cls-2" d="M98.73,1.81V2.3H97.19V1.9l.24,0a.14.14,0,0,0,.1-.15c0-.08-.09-.12-.27-.1V1.12a1.17,1.17,0,0,1,.58.12.44.44,0,0,1,.21.41v.08a.24.24,0,0,1,0,.08Z"/><path class="cls-2" d="M100,3.33a1.09,1.09,0,0,1,.41-.39,1,1,0,0,1,.55-.14,1,1,0,0,1,.74.25,1,1,0,0,1,.24.71V5.7h-.56V3.78a.54.54,0,0,0-.1-.35.37.37,0,0,0-.32-.13.62.62,0,0,0-.51.29Z"/><path class="cls-2" d="M104.39,5.7V5.37a.93.93,0,0,1-.35.28,1.1,1.1,0,0,1-.4.08,1,1,0,0,1-.42-.08.77.77,0,0,1-.31-.22.9.9,0,0,1-.2-.34,1.18,1.18,0,0,1-.08-.43V2.83h.59V4.57a.63.63,0,0,0,.16.49.59.59,0,0,0,.41.15.41.41,0,0,0,.21,0,.59.59,0,0,0,.2-.15.8.8,0,0,0,.13-.22.88.88,0,0,0,0-.29V2.83H105V5.7Z"/><path class="cls-2" d="M106.26,5.7h-.56V3.9a1.19,1.19,0,0,1,.08-.47,1,1,0,0,1,.25-.35.84.84,0,0,1,.43-.22,2,2,0,0,1,1,0,.84.84,0,0,1,.43.22,1,1,0,0,1,.25.35,1.19,1.19,0,0,1,.09.47V5.7h-.57V4a.6.6,0,0,0-.18-.49.73.73,0,0,0-.5-.16.75.75,0,0,0-.5.15.63.63,0,0,0-.19.46V4l.24,0H107v.47h-.41a.3.3,0,0,0-.24.07.37.37,0,0,0-.06.23Z"/><path class="cls-2" d="M111,4.84a.72.72,0,0,1-.07.33.86.86,0,0,1-.21.29,1.07,1.07,0,0,1-.35.2,1.51,1.51,0,0,1-.5.07,1.62,1.62,0,0,1-.66-.12,1.64,1.64,0,0,1-.51-.37l.35-.38a1.87,1.87,0,0,0,.36.27.88.88,0,0,0,.45.1.63.63,0,0,0,.44-.12.35.35,0,0,0,.13-.27.3.3,0,0,0-.13-.25,1.48,1.48,0,0,0-.29-.12l-.23,0a1.89,1.89,0,0,1-.68-.26.59.59,0,0,1-.24-.52.8.8,0,0,1,.25-.6,1.06,1.06,0,0,1,.75-.24,1.43,1.43,0,0,1,.56.1,1.79,1.79,0,0,1,.5.3l-.39.36a1.4,1.4,0,0,0-.32-.2,1,1,0,0,0-.35-.06.46.46,0,0,0-.34.1.3.3,0,0,0-.1.24.19.19,0,0,0,.12.17,2.2,2.2,0,0,0,.32.12l.27.06a2.55,2.55,0,0,1,.33.11,1,1,0,0,1,.29.16.55.55,0,0,1,.18.24A.69.69,0,0,1,111,4.84Z"/><path class="cls-2" d="M113.49,3.54a.81.81,0,0,1,.33.38,1.35,1.35,0,0,1,.11.52V5.7h-.57V4.49a.58.58,0,0,0-.32-.6l-1,.76v1h-.58V2.83h.58V4l1.59-1.24.32.39Z"/><path class="cls-2" d="M115.45,5.73a1.6,1.6,0,0,1-.39-.05,1,1,0,0,1-.33-.16,1,1,0,0,1-.22-.28.93.93,0,0,1-.08-.39.82.82,0,0,1,.25-.6,1.09,1.09,0,0,1,.77-.24h.76V3.83a.53.53,0,0,0-.15-.41.7.7,0,0,0-.49-.13.86.86,0,0,0-.38.07,1.07,1.07,0,0,0-.28.19l-.36-.34a1.2,1.2,0,0,1,.47-.32,1.68,1.68,0,0,1,.58-.09c.8,0,1.2.32,1.2,1V5.7h-.59V4.45h-.69c-.35,0-.52.13-.52.39a.35.35,0,0,0,.13.3.65.65,0,0,0,.41.11v.48Z"/><path class="cls-2" d="M117.71,4.92a.71.71,0,0,0,.27.21.61.61,0,0,0,.3.08.5.5,0,0,0,.44-.19.79.79,0,0,0,.14-.47V4a.78.78,0,0,0-.13-.46.51.51,0,0,0-.45-.19.62.62,0,0,0-.34.11.7.7,0,0,0-.26.32l-.5-.25a1.27,1.27,0,0,1,.46-.51,1.21,1.21,0,0,1,.64-.18,1.13,1.13,0,0,1,.85.32,1.21,1.21,0,0,1,.29.84v.59a1.63,1.63,0,0,1-.06.45,1.12,1.12,0,0,1-.21.37,1,1,0,0,1-.35.26,1.38,1.38,0,0,1-.52.09,1.27,1.27,0,0,1-.52-.12,1.23,1.23,0,0,1-.46-.36Z"/><path class="cls-2" d="M120.06,4.79a.67.67,0,0,0,.19.33.4.4,0,0,0,.3.11.42.42,0,0,0,.33-.12.54.54,0,0,0,.11-.35V3.31h-.4V2.83h1V4.77a.94.94,0,0,1-.26.71,1,1,0,0,1-.75.25,1,1,0,0,1-.64-.19,1.08,1.08,0,0,1-.36-.51Z"/></g></g></svg>